<svg display="none" xmlns="http://www.w3.org/2000/svg" xmlns:xlink="http://www.w3.org/1999/xlink"><symbol fill="none" viewBox="0 0 20 27" id="abstract-symb"><path fill="currentColor" d="M19.433 0c.3 0 .567.248.567.526V2.85c0 .278-.267.526-.567.526H.567c-.3 0-.567-.248-.567-.526V.526C0 .248.267 0 .567 0h18.866ZM10.73 7.367c-.083-.17-.216-.31-.514-.31h-.299c-.265 0-.415.14-.514.31L.06 26.27c-.182.373.067.73.515.73H3.18c.481 0 .747-.28.863-.56l5.89-12.332h.084l5.94 12.333c.216.388.415.559.863.559h2.605c.448 0 .697-.373.515-.73L10.73 7.367Z"/></symbol><symbol fill="none" viewBox="0 0 14 8" id="arrow"><path fill="currentColor" d="M12.95.77c.06.09.09.17.09.26 0 .12-.03.18-.1.24l-6.1 6.15a.47.47 0 0 1-.27.09c-.11 0-.17-.03-.23-.1L.18 1.28a.3.3 0 0 1-.1-.24c0-.09.04-.17.1-.26l.58-.6C.82.12.88.1 1 .1c.08 0 .17.03.26.1l5.3 5.3 5.3-5.3c.06-.07.15-.1.27-.1.09 0 .17.03.23.1l.59.58Z"/></symbol><symbol fill="none" viewBox="0 0 28 28" id="cross"><path stroke="currentColor" stroke-linecap="round" d="M27 1 1 27M1 1l26 26"/></symbol><symbol fill="none" viewBox="0 0 718 114" id="display-decor-text"><path fill="currentColor" d="M204.169 114c19.283 0 32.356-9.252 41.508-21.809l-11.603-6.443c-6.209 9.417-17.485 16.026-29.905 16.026-23.859 0-41.998-18.67-41.998-44.774 0-26.27 18.139-44.774 41.998-44.774 12.42 0 23.696 6.774 29.905 16.026l11.439-6.443C236.852 9.417 223.452 0 204.169 0c-31.376 0-56.052 23.13-56.052 57 0 33.87 24.676 57 56.052 57ZM353.823 112.018V1.818h-13.564v47.418h-63.733V1.818h-13.563v110.2h13.563V61.462h63.733v50.556h13.564ZM472.612 112.018l-43.959-110.2h-16.832l-43.796 110.2h15.524l9.642-24.452h54.255l9.641 24.452h15.525ZM443.36 75.34h-46.247l23.205-59.313L443.36 75.34ZM500.353 112.018V68.236h30.231c21.571 0 34.154-15.2 34.154-33.209 0-18.009-12.256-33.209-34.154-33.209h-43.795v110.2h13.564ZM528.95 56.01h-28.597V14.044h28.597c12.91 0 21.735 8.592 21.735 20.983S541.86 56.01 528.95 56.01ZM13.563 112.018V1.818H0v110.2h13.563ZM129.303 112.018V1.818H115.74v86.079L52.988 1.818h-13.89v110.2H52.66V24.123l63.569 87.895h13.073ZM595.214 112.018V1.818H581.65v110.2h13.564ZM710.954 112.018V1.818H697.39v86.079L634.639 1.818h-13.891v110.2h13.564V24.123l63.568 87.895h13.074Z"/></symbol><symbol fill="none" viewBox="0 0 187 30" id="logo"><path fill="currentColor" d="M119.405 0c.315 0 .595.294.595.624v2.752c0 .33-.28.624-.595.624h-19.81C99.28 4 99 3.706 99 3.376V.624c0-.33.28-.624.596-.624h19.809ZM59.897 24.255a.568.568 0 0 0-.774 0c-1.308 1.03-2.89 1.74-4.767 1.74-3.992 0-6.968-3.244-6.968-7.063 0-3.852 2.96-7.113 6.934-7.113 1.738 0 3.493.676 4.8 1.808.242.236.569.236.775 0L61.79 11.7c.24-.236.24-.608-.035-.861C59.64 8.98 57.368 8 54.22 8 48.007 8 43 12.917 43 19.034 43 25.134 48.007 30 54.236 30c2.77 0 5.455-.946 7.571-2.957.224-.22.275-.608.035-.828l-1.945-1.96ZM90.39 8h-2.975a.595.595 0 0 0-.61.591v8.33H76.23v-8.33A.595.595 0 0 0 75.62 8h-3.01c-.323 0-.61.278-.61.591V29.41c0 .313.287.591.61.591h3.01c.36 0 .61-.278.61-.591V20.73h10.576v8.679c0 .313.25.591.61.591h2.975c.322 0 .609-.278.609-.591V8.59c0-.313-.287-.591-.61-.591ZM110.267 8.343c-.087-.189-.227-.343-.54-.343h-.314c-.279 0-.436.154-.54.343l-9.81 20.852c-.191.41.07.805.54.805h2.736c.505 0 .784-.308.906-.617l6.185-13.604h.087l6.238 13.604c.227.428.436.617.906.617h2.736c.47 0 .731-.411.54-.805l-9.67-20.852ZM135.978 8h-7.387a.586.586 0 0 0-.591.591V29.41c0 .313.243.591.591.591h2.885a.61.61 0 0 0 .591-.591v-7.392h3.928c3.842 0 7.005-3.182 7.005-7.078.017-3.791-3.163-6.939-7.022-6.939Zm-.261 10.191h-3.65v-6.33h3.65c1.756 0 3.233 1.322 3.233 3.043 0 1.861-1.477 3.287-3.233 3.287ZM155.423 8h-2.847c-.305 0-.576.278-.576.591V29.41c0 .313.271.591.576.591h2.847c.305 0 .576-.278.576-.591V8.59c.017-.313-.271-.591-.576-.591ZM186.36 8h-2.95a.59.59 0 0 0-.605.586v12.868h-.035l-10.575-10.887-2.098-2.17a1.337 1.337 0 0 0-.959-.397h-.534a.59.59 0 0 0-.604.586v20.62a.59.59 0 0 0 .604.586h2.933a.59.59 0 0 0 .604-.586V15.821h.036l.035.034 12.904 13.73s.391.414.746.414c.516 0 1.138.052 1.138-.569V8.586a.647.647 0 0 0-.64-.586ZM3.423 8H.576C.271 8 0 8.278 0 8.591V29.41c0 .313.271.591.576.591h2.847c.305 0 .576-.278.576-.591V8.59C4.016 8.278 3.728 8 3.423 8ZM34.36 8h-2.95a.59.59 0 0 0-.605.586v12.868h-.035L20.195 10.567l-2.098-2.17A1.337 1.337 0 0 0 17.138 8h-.534a.59.59 0 0 0-.604.586v20.62a.59.59 0 0 0 .604.586h2.933a.59.59 0 0 0 .604-.586V15.821h.036l.035.034 12.904 13.73s.391.414.746.414c.516 0 1.138.052 1.138-.569V8.586A.647.647 0 0 0 34.36 8Z"/></symbol><symbol fill="none" viewBox="0 0 14 14" id="phone"><path fill="currentColor" d="M13.482.667c.164.027.273.11.382.219a.814.814 0 0 1 .137.41c0 2.297-.574 4.43-1.723 6.398-1.148 1.914-2.652 3.446-4.566 4.567a12.479 12.479 0 0 1-6.398 1.722c-.164 0-.301-.027-.41-.136a.437.437 0 0 1-.22-.383L.029 10.62c-.054-.137-.027-.273.055-.437a.516.516 0 0 1 .328-.301l3.063-1.313a.6.6 0 0 1 .383-.027c.136.055.273.11.382.219l1.34 1.64a9.39 9.39 0 0 0 2.844-1.996 9.892 9.892 0 0 0 1.996-2.843l-1.64-1.34c-.11-.11-.192-.22-.22-.356-.054-.137-.027-.273.028-.41L9.9.394a.582.582 0 0 1 .3-.329c.137-.054.274-.082.438-.054l2.844.656Z"/></symbol><symbol fill="none" viewBox="0 0 12 14" id="play"><path fill="currentColor" d="M11.15 5.861c.907.489.907 1.79 0 2.278l-8.978 4.834a1.294 1.294 0 0 1-1.906-1.139V2.166a1.294 1.294 0 0 1 1.906-1.14l8.978 4.835Z"/></symbol></svg>